<?xml version="1.0" standalone="no"?>
<!DOCTYPE svg PUBLIC "-//W3C//DTD SVG 20010904//EN"
 "http://www.w3.org/TR/2001/REC-SVG-20010904/DTD/svg10.dtd">
<svg version="1.0" xmlns="http://www.w3.org/2000/svg"
 width="100.000000pt" height="100.000000pt" viewBox="0 0 100.000000 100.000000"
 preserveAspectRatio="xMidYMid meet">

<g transform="translate(0.000000,100.000000) scale(0.100000,-0.100000)"
fill="#000000" stroke="none">
<path d="M330 962 c-38 -18 -76 -82 -66 -108 5 -12 10 -10 29 11 18 22 36 29
100 38 96 14 107 6 77 -49 -12 -21 -27 -45 -32 -52 -12 -14 -11 -15 14 -28 13
-7 3 -10 -36 -10 -54 0 -91 -17 -80 -36 4 -6 10 -26 14 -44 6 -27 4 -39 -12
-59 -11 -14 -15 -25 -9 -25 6 0 11 -7 11 -15 0 -8 5 -15 12 -15 6 0 3 -6 -8
-14 -18 -13 -20 -12 -32 21 -16 47 -18 49 -32 23 -9 -17 -8 -26 4 -45 9 -14
16 -27 16 -30 0 -12 -34 -3 -57 15 -15 11 -29 17 -32 14 -3 -4 -1 -9 6 -11 14
-5 63 -50 63 -58 0 -12 -34 -4 -57 15 -23 18 -27 18 -49 4 -22 -15 -22 -17 -7
-40 9 -14 13 -27 10 -30 -3 -3 -2 -16 3 -28 5 -15 2 -28 -11 -45 -10 -13 -19
-29 -19 -37 0 -8 -10 -14 -22 -14 -20 0 -20 -1 -3 -20 14 -15 16 -26 8 -57
l-9 -38 -23 44 c-13 24 -21 54 -18 67 2 13 1 24 -3 24 -9 0 -50 -93 -50 -114
0 -19 30 -56 45 -56 5 0 21 -6 35 -13 14 -7 54 -19 90 -27 36 -7 70 -16 75
-20 12 -9 158 -55 203 -65 l32 -7 -19 34 c-24 39 -51 139 -51 185 0 26 4 33
19 33 11 0 21 4 23 9 2 5 24 3 49 -3 l45 -12 -25 46 c-14 25 -28 46 -31 48 -4
1 -5 15 -2 31 3 22 13 33 44 47 46 21 98 66 98 85 0 7 -6 5 -15 -7 -13 -18
-14 -16 -15 28 0 49 -14 72 -23 38 -9 -36 -25 -21 -29 28 -5 53 3 80 12 42 4
-17 13 -25 27 -24 16 0 23 -7 27 -28 7 -34 22 -36 30 -4 23 91 24 159 6 220
-12 37 -31 73 -48 89 -64 61 -225 88 -302 49z m65 -13 c-4 -6 -15 -9 -25 -6
-21 6 -80 -27 -80 -45 0 -6 -3 -9 -6 -6 -9 10 16 48 31 48 8 0 15 4 15 8 0 4
16 9 36 10 24 2 33 -1 29 -9z m133 -51 c5 -46 5 -54 4 -81 -1 -17 -6 -26 -13
-22 -5 4 -7 19 -4 34 6 29 -9 81 -27 92 -6 4 -7 12 -3 19 10 16 40 -12 43 -42z
m-32 -54 c-4 -9 -9 -15 -11 -12 -3 3 -3 13 1 22 4 9 9 15 11 12 3 -3 3 -13 -1
-22z m169 -23 c2 -12 0 -19 -4 -16 -5 2 -11 16 -14 31 -2 15 -1 22 4 17 5 -5
11 -19 14 -32z m-165 -125 c0 -7 -12 -21 -26 -31 -24 -16 -26 -21 -20 -66 l7
-48 -30 16 c-22 13 -30 26 -34 57 -3 22 -14 46 -23 53 -15 11 -10 13 38 13 31
0 60 5 63 10 9 15 25 12 25 -4z m148 -41 c-3 -3 -9 2 -12 12 -6 14 -5 15 5 6
7 -7 10 -15 7 -18z m-268 -25 c0 -5 -4 -10 -10 -10 -5 0 -10 5 -10 10 0 6 5
10 10 10 6 0 10 -4 10 -10z m5 -90 c-3 -5 -13 -10 -21 -10 -26 0 -9 -25 17
-26 62 -3 64 -5 22 -24 -31 -14 -41 -23 -37 -35 4 -10 0 -15 -15 -15 -23 0
-25 7 -12 43 5 13 5 30 1 37 -5 9 -4 20 2 27 12 15 52 18 43 3z m69 -125 c19
-28 21 -48 5 -43 -14 5 -41 68 -30 68 5 0 16 -11 25 -25z m-194 -8 c0 -14 -19
-37 -31 -37 -10 0 -20 30 -13 41 8 14 44 11 44 -4z"/>
<path d="M273 733 c-18 -7 -16 -16 7 -41 29 -31 42 -27 38 10 -3 32 -18 43
-45 31z"/>
<path d="M680 491 c0 -13 -8 -37 -17 -53 -13 -22 -15 -32 -6 -35 8 -3 3 -25
-16 -71 -15 -37 -26 -72 -24 -78 2 -7 -12 -58 -32 -114 -19 -56 -35 -103 -35
-104 0 -2 35 14 78 35 42 21 90 41 105 44 18 4 27 11 25 22 -2 9 3 18 10 20 6
3 12 -2 12 -11 0 -12 7 -14 33 -9 17 3 36 12 40 20 4 7 19 13 32 13 15 0 26 7
30 20 3 11 11 20 16 20 13 0 11 28 -3 32 -7 3 -2 20 15 49 15 25 27 48 27 51
0 2 -44 24 -97 48 -54 24 -109 53 -123 64 -76 65 -70 62 -70 37z m220 -271
c-20 -13 -40 -13 -40 0 0 6 12 10 28 10 21 0 24 -2 12 -10z"/>
</g>
</svg>
